<mxfile host="Electron" agent="Mozilla/5.0 (Windows NT 10.0; Win64; x64) AppleWebKit/537.36 (KHTML, like Gecko) draw.io/26.0.9 Chrome/128.0.6613.186 Electron/32.2.5 Safari/537.36" version="26.0.9">
  <diagram name="Page-1" id="GjRCN151Grqaueiy4_Nm">
    <mxGraphModel dx="1046" dy="781" grid="1" gridSize="10" guides="1" tooltips="1" connect="1" arrows="1" fold="1" page="1" pageScale="1" pageWidth="850" pageHeight="1100" math="0" shadow="0">
      <root>
        <mxCell id="0" />
        <mxCell id="1" parent="0" />
        <mxCell id="pIp2fCs_k1ny-_KFwzoE-2" value="Hexapod" style="swimlane;whiteSpace=wrap;html=1;" parent="1" vertex="1">
          <mxGeometry x="180" y="110" width="460" height="540" as="geometry" />
        </mxCell>
        <mxCell id="238J0TzQV8tkLSNrnMts-4" style="edgeStyle=orthogonalEdgeStyle;rounded=0;orthogonalLoop=1;jettySize=auto;html=1;exitX=1;exitY=0.75;exitDx=0;exitDy=0;entryX=0;entryY=0.25;entryDx=0;entryDy=0;" parent="pIp2fCs_k1ny-_KFwzoE-2" source="pIp2fCs_k1ny-_KFwzoE-5" target="pIp2fCs_k1ny-_KFwzoE-9" edge="1">
          <mxGeometry relative="1" as="geometry" />
        </mxCell>
        <mxCell id="pIp2fCs_k1ny-_KFwzoE-5" value="Lidar" style="whiteSpace=wrap;html=1;aspect=fixed;" parent="pIp2fCs_k1ny-_KFwzoE-2" vertex="1">
          <mxGeometry x="30" y="50" width="80" height="80" as="geometry" />
        </mxCell>
        <mxCell id="238J0TzQV8tkLSNrnMts-3" style="edgeStyle=orthogonalEdgeStyle;rounded=0;orthogonalLoop=1;jettySize=auto;html=1;exitX=1;exitY=0.75;exitDx=0;exitDy=0;" parent="pIp2fCs_k1ny-_KFwzoE-2" source="pIp2fCs_k1ny-_KFwzoE-6" target="pIp2fCs_k1ny-_KFwzoE-9" edge="1">
          <mxGeometry relative="1" as="geometry" />
        </mxCell>
        <mxCell id="pIp2fCs_k1ny-_KFwzoE-6" value="Pi - Camera" style="whiteSpace=wrap;html=1;aspect=fixed;" parent="pIp2fCs_k1ny-_KFwzoE-2" vertex="1">
          <mxGeometry x="30" y="140" width="80" height="80" as="geometry" />
        </mxCell>
        <mxCell id="238J0TzQV8tkLSNrnMts-2" style="edgeStyle=orthogonalEdgeStyle;rounded=0;orthogonalLoop=1;jettySize=auto;html=1;exitX=1;exitY=0.25;exitDx=0;exitDy=0;entryX=0;entryY=0.75;entryDx=0;entryDy=0;" parent="pIp2fCs_k1ny-_KFwzoE-2" source="pIp2fCs_k1ny-_KFwzoE-7" target="pIp2fCs_k1ny-_KFwzoE-9" edge="1">
          <mxGeometry relative="1" as="geometry">
            <Array as="points">
              <mxPoint x="190" y="350" />
              <mxPoint x="190" y="210" />
              <mxPoint x="270" y="210" />
            </Array>
          </mxGeometry>
        </mxCell>
        <mxCell id="pIp2fCs_k1ny-_KFwzoE-7" value="UWB" style="whiteSpace=wrap;html=1;aspect=fixed;" parent="pIp2fCs_k1ny-_KFwzoE-2" vertex="1">
          <mxGeometry x="30" y="330" width="80" height="80" as="geometry" />
        </mxCell>
        <mxCell id="pIp2fCs_k1ny-_KFwzoE-8" value="Servos" style="whiteSpace=wrap;html=1;aspect=fixed;" parent="pIp2fCs_k1ny-_KFwzoE-2" vertex="1">
          <mxGeometry x="30" y="430" width="80" height="80" as="geometry" />
        </mxCell>
        <mxCell id="pIp2fCs_k1ny-_KFwzoE-4" value="Raspberry Pi" style="swimlane;whiteSpace=wrap;html=1;" parent="pIp2fCs_k1ny-_KFwzoE-2" vertex="1">
          <mxGeometry x="160" y="60" width="280" height="380" as="geometry" />
        </mxCell>
        <mxCell id="pIp2fCs_k1ny-_KFwzoE-9" value="Data forwarding" style="rounded=1;whiteSpace=wrap;html=1;" parent="pIp2fCs_k1ny-_KFwzoE-4" vertex="1">
          <mxGeometry x="110" y="60" width="120" height="130" as="geometry" />
        </mxCell>
        <mxCell id="pIp2fCs_k1ny-_KFwzoE-15" value="Motor Controller" style="rounded=1;whiteSpace=wrap;html=1;" parent="pIp2fCs_k1ny-_KFwzoE-4" vertex="1">
          <mxGeometry x="110" y="250" width="120" height="70" as="geometry" />
        </mxCell>
        <mxCell id="238J0TzQV8tkLSNrnMts-15" style="edgeStyle=orthogonalEdgeStyle;rounded=0;orthogonalLoop=1;jettySize=auto;html=1;exitX=1;exitY=0.5;exitDx=0;exitDy=0;entryX=0.012;entryY=0.836;entryDx=0;entryDy=0;entryPerimeter=0;" parent="pIp2fCs_k1ny-_KFwzoE-4" target="pIp2fCs_k1ny-_KFwzoE-9" edge="1">
          <mxGeometry relative="1" as="geometry">
            <mxPoint x="-73" y="241.33999999999997" as="sourcePoint" />
            <mxPoint x="84" y="170.00000000000009" as="targetPoint" />
            <Array as="points">
              <mxPoint x="80" y="241" />
              <mxPoint x="80" y="169" />
            </Array>
          </mxGeometry>
        </mxCell>
        <mxCell id="aCL7MEi6_8roGodADfYx-2" value="" style="swimlane;startSize=0;" vertex="1" parent="pIp2fCs_k1ny-_KFwzoE-4">
          <mxGeometry x="70" y="30" width="200" height="310" as="geometry" />
        </mxCell>
        <mxCell id="aCL7MEi6_8roGodADfYx-3" value="Server" style="text;html=1;align=center;verticalAlign=middle;resizable=0;points=[];autosize=1;strokeColor=none;fillColor=none;fontStyle=1" vertex="1" parent="aCL7MEi6_8roGodADfYx-2">
          <mxGeometry x="70" width="60" height="30" as="geometry" />
        </mxCell>
        <mxCell id="238J0TzQV8tkLSNrnMts-7" style="edgeStyle=orthogonalEdgeStyle;rounded=0;orthogonalLoop=1;jettySize=auto;html=1;entryX=1;entryY=0.5;entryDx=0;entryDy=0;" parent="pIp2fCs_k1ny-_KFwzoE-2" source="pIp2fCs_k1ny-_KFwzoE-15" target="pIp2fCs_k1ny-_KFwzoE-8" edge="1">
          <mxGeometry relative="1" as="geometry" />
        </mxCell>
        <mxCell id="238J0TzQV8tkLSNrnMts-14" value="Depth Sense&lt;div&gt;Camera&lt;/div&gt;" style="whiteSpace=wrap;html=1;aspect=fixed;" parent="pIp2fCs_k1ny-_KFwzoE-2" vertex="1">
          <mxGeometry x="30" y="240" width="80" height="80" as="geometry" />
        </mxCell>
        <mxCell id="pIp2fCs_k1ny-_KFwzoE-3" value="Client" style="swimlane;whiteSpace=wrap;html=1;" parent="1" vertex="1">
          <mxGeometry x="770" y="110" width="370" height="290" as="geometry" />
        </mxCell>
        <mxCell id="pIp2fCs_k1ny-_KFwzoE-22" value="Livestream UI" style="rounded=1;whiteSpace=wrap;html=1;" parent="pIp2fCs_k1ny-_KFwzoE-3" vertex="1">
          <mxGeometry x="60" y="60" width="240" height="90" as="geometry" />
        </mxCell>
        <mxCell id="pIp2fCs_k1ny-_KFwzoE-23" value="3D Mapping Processing" style="rounded=1;whiteSpace=wrap;html=1;" parent="pIp2fCs_k1ny-_KFwzoE-3" vertex="1">
          <mxGeometry x="65" y="170" width="240" height="80" as="geometry" />
        </mxCell>
        <mxCell id="238J0TzQV8tkLSNrnMts-5" style="edgeStyle=orthogonalEdgeStyle;rounded=0;orthogonalLoop=1;jettySize=auto;html=1;" parent="1" source="pIp2fCs_k1ny-_KFwzoE-9" target="pIp2fCs_k1ny-_KFwzoE-23" edge="1">
          <mxGeometry relative="1" as="geometry">
            <Array as="points">
              <mxPoint x="740" y="295" />
              <mxPoint x="740" y="320" />
            </Array>
          </mxGeometry>
        </mxCell>
        <mxCell id="238J0TzQV8tkLSNrnMts-6" style="edgeStyle=orthogonalEdgeStyle;rounded=0;orthogonalLoop=1;jettySize=auto;html=1;exitX=1;exitY=0.25;exitDx=0;exitDy=0;entryX=0;entryY=0.75;entryDx=0;entryDy=0;" parent="1" source="pIp2fCs_k1ny-_KFwzoE-9" target="pIp2fCs_k1ny-_KFwzoE-22" edge="1">
          <mxGeometry relative="1" as="geometry" />
        </mxCell>
        <mxCell id="238J0TzQV8tkLSNrnMts-8" value="Controller" style="swimlane;whiteSpace=wrap;html=1;" parent="1" vertex="1">
          <mxGeometry x="855" y="420" width="200" height="180" as="geometry" />
        </mxCell>
        <mxCell id="238J0TzQV8tkLSNrnMts-9" value="Movement Commands" style="rounded=1;whiteSpace=wrap;html=1;" parent="238J0TzQV8tkLSNrnMts-8" vertex="1">
          <mxGeometry x="40" y="70" width="120" height="60" as="geometry" />
        </mxCell>
        <mxCell id="238J0TzQV8tkLSNrnMts-11" value="WiFi" style="text;html=1;align=center;verticalAlign=middle;whiteSpace=wrap;rounded=0;" parent="1" vertex="1">
          <mxGeometry x="680" y="200" width="60" height="30" as="geometry" />
        </mxCell>
        <mxCell id="238J0TzQV8tkLSNrnMts-12" value="Zigbee" style="text;html=1;align=center;verticalAlign=middle;whiteSpace=wrap;rounded=0;" parent="1" vertex="1">
          <mxGeometry x="750" y="490" width="60" height="30" as="geometry" />
        </mxCell>
        <mxCell id="238J0TzQV8tkLSNrnMts-13" style="edgeStyle=orthogonalEdgeStyle;rounded=0;orthogonalLoop=1;jettySize=auto;html=1;exitX=0;exitY=0.5;exitDx=0;exitDy=0;entryX=1;entryY=0.5;entryDx=0;entryDy=0;" parent="1" source="238J0TzQV8tkLSNrnMts-9" target="pIp2fCs_k1ny-_KFwzoE-15" edge="1">
          <mxGeometry relative="1" as="geometry" />
        </mxCell>
      </root>
    </mxGraphModel>
  </diagram>
</mxfile>
